<?xml version="1.0" encoding="UTF-8"?>
<svg width="1024px" height="906px" viewBox="0 0 1024 906" version="1.1" xmlns="http://www.w3.org/2000/svg" xmlns:xlink="http://www.w3.org/1999/xlink">
  <g id="Page-1" stroke="none" stroke-width="1" fill="none" fill-rule="evenodd">
    <g id="background" transform="translate(512.000000, 412.500000) scale(-1, 1) translate(-512.000000, -412.500000) translate(-165.000000, -81.000000)">
      <path d="M907.02,567.77 L907.02,637.55 C907.02,638.63 906.14,639.51 905.05,639.51 L769.93,639.47 C768.84,639.47 767.33,640.09 766.55,640.86 L727.32,679.82 C726.387867,680.655223 725.199565,681.14888 723.95,681.22 L648.57,681.22 C647.481999,681.22 646.6,680.338001 646.6,679.25 L646.6,645.75" id="Shape" stroke="#31B495"></path>
      <path d="M633,2.32 L633,267.79 C633.005513,269.995233 634.79476,271.780007 637,271.78 L692,271.78 C693.08,271.78 693.97,272.66 693.97,273.74 L693.97,421.24 C693.97,422.32 693.34,423.83 692.57,424.59 L644.67,471.99 C643.836255,472.911201 643.342302,474.089631 643.27,475.33 C643.27,477.58 643.91,479.09 644.67,479.86 L698.49,533.12 C699.26,533.88 700.25,534.51 700.68,534.51 C701.11,534.51 701.47,535.39 701.47,536.47 L701.47,606.64 C701.47,607.71 700.58,608.6 699.5,608.6 L613.69,608.56 C612.6,608.56 611.09,609.18 610.31,609.95 L608.76,611.49 C607.825231,612.327312 606.633052,612.821114 605.38,612.89 L596.09,612.89" id="Shape" stroke="#1AACA8"></path>
      <path d="M134,206.82 L134,597.88 C133.999891,600.095702 135.784406,601.898062 138,601.92 L266.8,603" id="Shape" stroke="#1F8C43"></path>
      <path d="M1020.01,453 L1069.81,403.56 C1070.74213,402.724777 1071.93044,402.23112 1073.18,402.16 L1165.59,402.16 C1166.68,402.16 1168.19,402.79 1168.97,403.56 L1196.15,430.55" id="Shape" stroke="#1AA5D0"></path>
      <path d="M1020.01,453 L1069.81,403.56 C1070.74213,402.724777 1071.93044,402.23112 1073.18,402.16 L1165.59,402.16 C1166.68,402.16 1168.19,402.79 1168.97,403.56 L1196.15,430.55" id="Shape" stroke="#1AA5D0"></path>
      <path d="M690.8,628.64 L690.8,646.4 C690.8,647.48 690.16,648.99 689.4,649.75 L508.28,829.6 C507.343847,830.433681 506.151813,830.923896 504.9,830.99 L395.8,830.99 C394.71,830.99 393.83,831.87 393.83,832.95 L393.83,856.32 C393.83,857.39 392.93,858.28 391.85,858.28 L308.31,858.28 C307.23,858.28 306.34,859.16 306.34,860.24 L306.34,906.04 C306.34,907.11 307.23,907.99 308.31,907.99 L338.2,907.99 C339.28,907.99 340.17,908.87 340.17,909.95 L340.17,961.02 C340.17,962.1 340.8,963.61 341.57,964.37 L351.89,974.62 C352.66,975.38 354.18,976.01 355.26,976.01 L467.03,976.01 C468.12,976.01 468.37,976.63 467.6,977.4 M608.82,735 L756.9,735" id="Shape" stroke="#DA5A98"></path>
      <path d="M566.53,324.87 L534.83,356.35 C533.896486,357.181592 532.708328,357.671663 531.46,357.74 L469.09,357.74 C468,357.74 466.49,358.36 465.71,359.13 L463.03,362.79 L198.44,362.81 C197.36,362.81 195.84,362.18 195.07,361.41 L147.77,314.44 C146.836486,313.608408 145.648328,313.118337 144.4,313.05 L86.93,313.05 L85.81,278.44 C85.81,277.36 85.18,275.85 84.41,275.09 L17.87,209.15" id="Shape" stroke="#E5683E"></path>
      <path d="M831.31,300.73 L839.14,300.73 C840.23,300.73 841.74,301.36 842.51,302.13 L888.31,347.73 C889.09,348.49 889.71,350 889.71,351.08 L889.71,365.02 C889.71,366.1 890.17,366.98 890.74,367 C891.3,367 891.77,367.9 891.77,368.98 L891.77,379.75 L891.62,490.59 C891.62,491.67 890.73,492.55 889.64,492.55 L754.32,492.55 C753.24,492.55 751.72,491.92 750.95,491.15 L738.75,479.03 C737.813847,478.196319 736.621813,477.706104 735.37,477.64 L689.19,477.64 C688.100865,477.639782 687.211783,478.511083 687.19,479.6 L687.02,506.34 C687.02,507.42 686.39,508.93 685.62,509.69 L676.8,518.45 C675.866486,519.281592 674.678328,519.771663 673.43,519.84 L646.78,519.78 C645.69,519.78 644.18,520.4 643.4,521.17 L595.3,568.95 C594.363847,569.783681 593.171813,570.273896 591.92,570.34 L575.55,570.34 L496.1,570.32 C495.01,570.32 493.5,570.95 492.74,571.71 L346.71,718.06 C345.785296,718.894465 344.603493,719.388353 343.36,719.46 L157.06,719.46" id="Shape" stroke="#9F83B6"></path>
      <path d="M219.879225,66 L386.501946,232.530262 C387.391864,233.408623 389.148586,234.136738 390.396782,234.136738 L560.012865,234.136738 C561.272619,234.136738 563.017783,234.853295 563.919259,235.743213 L600.821967,272.39166 C601.711885,273.281578 602.44,275.015184 602.44,276.263381 L602.44,499.043403 C602.44,500.2916 601.711885,502.036764 600.821967,502.915125 L592.03836,511.629388 C590.964107,512.59228 589.595217,513.162651 588.155081,513.247421 L564.323767,513.247421 L540.434666,537.483243 L537.221715,540.696194 L386.236126,690.780307 C385.270111,691.848012 384.699061,693.214454 384.618093,694.652029 L384.803011,900.2" id="Shape" stroke="#BC6D21"></path>
      <path d="M444.82,459.62 L539.7,459.62 C540.79,459.62 542.3,460.25 543.08,461.01 L558.05,475.88 C558.82,476.64 560.34,477.27 561.42,477.27 L634.41,477.27 C635.49,477.27 637.01,477.9 637.76,478.66 L696.33,537.19 C697.1,537.96 698.6,538.59 699.68,538.59 L803.05,538.59 C804.13,538.59 805.02,537.7 805.02,536.62 L805.02,521.92 C805.02,520.83 804.13,519.95 803.05,519.95 L796.35,519.97 L756.1,519.97 C755.015892,519.970014 754.135503,519.094094 754.13,518.01 L754.13,461.01 C754.13,459.93 753.5,458.42 752.73,457.66 L738.15,443.18 C737.314157,442.256171 736.820057,441.073859 736.75,439.83 L736.75,422.53 C736.75,421.46 736.12,419.95 735.35,419.19 L723,406.92 C722.066486,406.088408 720.878328,405.598337 719.63,405.53 L702.23,405.53 C701.14,405.53 699.63,404.91 698.85,404.14 L657.05,362.64 C656.117867,361.804777 654.929565,361.31112 653.68,361.24 L612.34,361.24" id="Shape" stroke="#DA1817"></path>
      <path d="M981.2,273.4 L1041.04,273.4 C1042.13,273.4 1043.01,274.29 1043.01,275.36 L1043.01,304.1 C1043.01,305.18 1043.65,306.69 1044.41,307.45 L1095.37,358.05 C1096.14,358.81 1096.77,360.32 1096.77,361.4 L1096.77,462.87 L1201.97,567.14" id="Shape" stroke="#74BB63"></path>
      <path d="M764.46,384.73 L777,372.29 C777.77,371.55 777.77,370.29 777,369.53 L745.65,338.4 C744.89,337.66 744.89,336.4 745.65,335.64 L764.18,317.24 C765.113514,316.408408 766.301672,315.918337 767.55,315.85 L927.96,315.65 L1351.33,316.85 C1352.41,316.85 1353.3,317.74 1353.3,318.81 L1353.3,390.31" id="Shape" stroke="#DA5A98"></path>
      <path d="M564.61,565.03 L546.07,565.03 C544.99,565.03 543.47,564.4 542.7,563.63 L467.76,489.22 C466.827867,488.384777 465.639565,487.89112 464.39,487.82 L425.82,487.82 C424.74,487.82 423.22,487.2 422.45,486.44 L375.45,439.76 L338.87,439.72 L281.87,511.31 C281.034157,512.233829 280.540057,513.416141 280.47,514.66 L280.47,538.56" id="Shape" stroke="#BC6D21"></path>
      <path d="M1008.06,437.97 L961.14,484.57 C960.203847,485.403681 959.011813,485.893896 957.76,485.96 L863.12,485.96 C862.03,485.96 860.52,485.33 859.74,484.56 L829.14,454.23 C828.210505,453.396859 827.026076,452.903347 825.78,452.83 L790.84,452.87 C789.76,452.87 788.24,453.5 787.47,454.27 L757.9,483.63 C756.966486,484.461592 755.778328,484.951663 754.53,485.02 L739.98,470.67 C739.029991,469.831828 737.825048,469.338577 736.56,469.27 L579.59,469.02 C578.48,469.02 576.94,469.65 576.16,470.42 L548.31,498.03 C547.375231,498.867312 546.183052,499.361114 544.93,499.43 L102.18,499.43 L13.53,499.63 L1.09,511.98" id="Shape" stroke="#74BB63"></path>
      <path d="M418.9,722.74 L478.46,663.62 C479.393514,662.788408 480.581672,662.298337 481.83,662.23 L505.76,662.23 C506.84,662.23 508.36,661.6 509.13,660.84 L555.66,614.63 C556.594769,613.792688 557.786948,613.298886 559.04,613.23 L592.57,613.23 L746.24,613.22 C747.32,613.22 748.21,612.34 748.21,611.26 L748.21,499.01 C748.21,497.94 747.58,496.43 746.81,495.66 L708.17,457.29 C707.334157,456.366171 706.840057,455.183859 706.77,453.94 L706.77,402.42 C706.77,401.34 706.13,399.83 705.37,399.07 L594.91,289.39 C593.975231,288.552688 592.783052,288.058886 591.53,287.99 L411.04,288.19" id="Shape" stroke="#2283BC"></path>
      <path d="M610.13,627.71 L573.04,627.71 C571.96,627.71 570.44,628.34 569.67,629.11 L500.65,697.65 C499.88,698.41 499.88,699.65 500.65,700.41 L528.74,728.19 C529.51,728.95 531.03,729.58 532.11,729.58 L594.52,729.58" id="Shape" stroke="#DA5A98"></path>
      <path d="M646.82,640.7 L646.82,635.96 C646.82,634.88 645.93,634 644.84,634 L631.63,634 C630.54,634 629.03,633.38 628.26,632.61 L584.9,589.73 C584.064157,588.806171 583.570057,587.623859 583.5,586.38 L583.5,395.98 C583.5,394.9 584.13,393.38 584.9,392.62 L605.79,371.88 C606.625843,370.956171 607.119943,369.773859 607.19,368.53 L607.19,273.13 C607.19,272.05 606.56,270.55 605.79,269.78 L418.4,83.7 L417.8,42.82 C417.8,41.74 417.18,40.24 416.4,39.47 L404.8,27.93" id="Shape" stroke="#31B495"></path>
      <path d="M401.76,824 L501.04,824 C502.13,824 503.64,823.37 504.42,822.6 L678.75,649.85 C679.684769,649.012688 680.876948,648.518886 682.13,648.45 L728.88,648.45 C729.96,648.45 731.48,647.83 732.23,647.07 L783.7,595.61 C784.53066,594.684694 785.017898,593.501906 785.08,592.26 L785.08,390.29 C785.08,389.22 784.45,387.71 783.68,386.94 L731.84,335.64 C730.905231,334.802688 729.713052,334.308886 728.46,334.24 L710.51,334.24 C709.429762,334.240056 708.550967,333.370182 708.54,332.29 L708.54,287.82 C708.54,286.75 707.65,285.86 706.57,285.86 L617.94,285.86 C616.855892,285.860014 615.975503,284.984094 615.97,283.9 L615.97,264.7 C615.97,263.63 615.33,262.12 614.57,261.36 L435.87,83.92" id="Shape" stroke="#1EB2D8"></path>
      <path d="M1128.65,202.83 L1052.5,202.83 C1051.42,202.83 1049.9,203.45 1049.13,204.22 L956.85,295.68 C955.916486,296.511592 954.728328,297.001663 953.48,297.07 L821.61,296.99 C820.52,296.99 819.01,297.62 818.24,298.36 L766.34,349.55 C765.57,350.31 765.57,351.55 766.34,352.31 L787.56,373.41 C788.33,374.17 788.96,375.68 788.96,376.76 L788.96,392.45" id="Shape" stroke="#F4D21F"></path>
      <path d="M798.51,516.64 L852.76,516.64 C853.84,516.64 855.36,517.27 856.13,518.04 L905.17,566.74 C905.94,567.5 907.46,568.12 908.54,568.12 L953.7,568.12 C954.78,568.12 956.3,567.5 957.07,566.73 L1040.39,484 C1041.32213,483.164777 1042.51044,482.67112 1043.76,482.6 L1085.98,482.6 C1087.06,482.6 1088.58,483.23 1089.35,484 L1190.15,584.1" id="Shape" stroke="#BE2F39"></path>
      <path d="M798.51,513.31 L854.14,513.31 C855.22,513.31 856.74,513.94 857.51,514.71 L906.65,563.51 C907.42,564.27 908.94,564.89 910.02,564.89 L951.92,564.85 C953,564.85 954.52,564.23 955.29,563.46 L1017.37,501.78 C1018.20584,500.856171 1018.69994,499.673859 1018.77,498.43 L1018.67,230.25 C1018.67,229.17 1018.04,227.66 1017.27,226.9 L917.47,127.62 C916.536486,126.788408 915.348328,126.298337 914.1,126.23 L548.62,126.23 C547.54,126.23 546.02,126.86 545.25,127.63 L386.28,285.3 C385.343847,286.133681 384.151813,286.623896 382.9,286.69 L253.3,286.69 C252.22,286.69 250.7,287.31 249.93,288.08 L213.22,324.53 C212.384157,325.453829 211.890057,326.636141 211.82,327.88 L211.82,512.98" id="Shape" stroke="#E5683E"></path>
      <path d="M536.1,792.73 L553.63,810.15 C554.4,810.91 555.92,811.54 557,811.54 L599.02,811.54 C600.11,811.54 601.62,810.91 602.39,810.14 L628.41,784.31 L751.61,784" id="Shape" stroke="#1EB2D8"></path>
      <path d="M433.34,986.08 C434.11,985.31 433.86,984.68 432.77,984.68 L234.29,984.68 C233.205867,984.685559 232.320992,983.814092 232.31,982.73 L232.31,822.59 C232.31,821.51 233.21,820.63 234.29,820.63 L498.67,820.63 C499.76,820.63 501.27,820 502.05,819.23 L525.8,795.65 C526.57,794.89 526.57,793.65 525.8,792.89 L444.96,712.79 C444.19,712.03 444.45,711.39 445.53,711.39 L583.06,711.39 C584.15,711.39 585.66,710.77 586.44,710.01 L640.07,656.75 C641.002133,655.914777 642.190435,655.42112 643.44,655.35 L732.01,655.15 C733.1,655.15 734.61,654.53 735.39,653.77 L790.99,598.55 C791.825843,597.626171 792.319943,596.443859 792.39,595.2 L792.39,488.93 C792.39,487.85 793.29,486.97 794.37,486.97 L823.37,486.97 C824.45,486.97 825.97,486.34 826.74,485.57 L870.06,442.56 C870.992133,441.724777 872.180435,441.23112 873.43,441.16 L879.54,441.16 C880.63,441.16 882.14,440.54 882.92,439.78 L936.04,387.02 C936.973514,386.188408 938.161672,385.698337 939.41,385.63 L953.01,385.63 C954.09,385.63 955.61,386.26 956.38,387.03 L1018.79,449 C1019.56,449.77 1021.08,450.4 1022.16,450.4 L1096.22,450.4 C1097.3,450.4 1098.82,451.02 1099.59,451.78 L1193.56,545.28" id="Shape" stroke="#2283BC"></path>
      <path d="M773.56,508.46 L773.56,474.84 C773.56,473.76 772.93,472.25 772.16,471.49 L740.71,440.27 C739.777867,439.434777 738.589565,438.94112 737.34,438.87 L700.47,438.87 C699.39,438.87 697.87,439.5 697.1,440.27 L622.75,514.1 C621.816486,514.931592 620.628328,515.421663 619.38,515.49 L566.9,515.49 C566.377521,515.492659 565.875387,515.287652 565.504063,514.920079 C565.13274,514.552506 564.922645,514.052479 564.92,513.53 L564.92,442.03 C564.92,440.95 564.04,440.07 562.95,440.07 L135.3,440.07 C134.22,440.07 132.7,440.7 131.93,441.47 L94.03,479.09 C93.0978668,479.925223 91.9095647,480.41888 90.66,480.49 L33.66,480.49 C32.56,480.49 31.05,481.11 30.28,481.87 L17.08,494.97 C16.1478668,495.805223 14.9595647,496.29888 13.71,496.37 L0.51,496.37" id="Shape" stroke="#E6632A"></path>
      <path d="M345.9,436 L490.39,436 L566.93,436.13 C568.01,436.13 568.9,437.01 568.9,438.09 L568.9,509.79 C568.9,510.87 569.79,511.75 570.87,511.75 L617.23,511.75 C618.31,511.75 619.83,511.12 620.6,510.35 L694.95,436.35 C695.882133,435.514777 697.070435,435.02112 698.32,434.95 L890.65,434.95 C891.74,434.95 893.25,434.33 894.02,433.57 L937.6,390.29 C938.533514,389.458408 939.721672,388.968337 940.97,388.9 L951.57,388.9 C952.65,388.9 954.17,389.53 954.94,390.3 L1017.59,452.5 C1018.36,453.27 1019.88,453.9 1020.96,453.9 L1094.83,453.9 C1095.92,453.9 1097.43,454.53 1098.21,455.3 L1192.33,548.77 L1201.6,549.34 C1202.44,549.34 1203.77,548.72 1204.53,547.95 L1308.61,458.59 C1309.37864,457.824659 1310.62136,457.824659 1311.39,458.59 L1317.69,464.84" id="Shape" stroke="#F4D21F"></path>
      <path d="M725.92,643.19 C727.417275,643.108433 728.842143,642.51944 729.96,641.52 L777.9,593.92 C778.900047,592.814393 779.489657,591.398626 779.57,589.91 L779.57,392.84 C779.57,391.54 778.82,389.74 777.9,388.82 L729.96,341.22 C728.840761,340.224191 727.416037,339.638784 725.92,339.56 L628.08,339.56 C626.580479,339.636546 625.151877,340.222096 624.03,341.22 L576.1,388.82 C575.094204,389.926825 574.500852,391.346631 574.42,392.84 L574.42,589.91 C574.42,591.2 575.17,593.01 576.1,593.92 L624.03,641.52 C625.150493,642.521535 626.579239,643.110672 628.08,643.19 L725.92,643.19 Z" id="Shape" stroke="#9DCA40"></path>
      <path d="M774.25,606.17 L774.25,639.47 C774.25,640.55 773.62,642.05 772.85,642.82 L685.48,729.58 C684.71,730.34 684.97,730.97 686.05,730.97 L756.87,730.97" id="Shape" stroke="#1EB2D8"></path>
      <path d="M602.04,352.32 L602.04,333.46 C602.04,332.38 601.41,330.87 600.64,330.11 L569.74,299.43 C568.807867,298.594777 567.619565,298.10112 566.37,298.03 L400.62,298.03" id="Shape" stroke="#BC6D21"></path>
      <path d="M443,29.23 L430.42,41.7 C429.585665,42.6266445 429.085742,43.8060415 429,45.05 L428.64,66.5 C428.686665,67.7415555 429.168024,68.9272573 430,69.85 L619.36,257.9 C620.13,258.66 620.76,260.17 620.76,261.25 L620.76,279.66 C620.76,280.74 621.65,281.62 622.73,281.62 L710.59,281.62 C711.68,281.62 712.57,282.5 712.57,283.58 L712.57,318.25 C712.57,319.33 713.45,320.21 714.54,320.21 L737.84,320.21 C738.92,320.21 740.44,320.84 741.21,321.61 L787.37,367.44 C788.14,368.21 788.77,369.72 788.77,370.79 L788.77,509.43 L788.84,593.83 C788.84,594.91 788.21,596.43 787.46,597.18 L733.83,650.45 C732.896486,651.281592 731.708328,651.771663 730.46,651.84 L683.9,651.84 C682.82,651.84 681.3,652.47 680.53,653.23 L506.57,825.98 C505.633847,826.813681 504.441813,827.303896 503.19,827.37 L238.47,827.37 C237.38,827.37 236.5,828.25 236.5,829.33 L236.5,922.57 C236.5,923.65 235.6,924.53 234.52,924.53 L9.98,924.53" id="Shape" stroke="#ED8E3F"></path>
      <path d="M541.07,691.97 L604.37,629.11 C605.302133,628.274777 606.490435,627.78112 607.74,627.71 L732.41,627.71 C733.49,627.71 735.01,627.11 735.78,626.34 L764.01,598.51 C764.848623,597.595881 765.343517,596.418742 765.41,595.18 L765.41,557.2 C765.41,556.13 766.3,555.24 767.38,555.24 L820,555.24 C821.09,555.24 821.97,554.36 821.97,553.29 L821.97,501.18 C821.97,500.1 822.61,498.59 823.37,497.83 L852.94,468.46 C853.775843,467.536171 854.269943,466.353859 854.34,465.11 L854.34,389.11 C854.34,388.03 855.24,387.15 856.32,387.15 L894.22,387.15 C896.429139,387.15 898.22,385.359139 898.22,383.15 L898.22,353.85 C898.22,352.77 898.85,351.26 899.62,350.5 L934.97,315.5" id="Shape" stroke="#DA5A98"></path>
      <path d="M1019.1,453.7 L973.5,499 C972.565109,499.827962 971.377095,500.314449 970.13,500.38 L744.66,500.38 C743.57,500.38 742.06,499.76 741.29,498.99 L659.64,417.91 C658.706486,417.078408 657.518328,416.588337 656.27,416.52 L510.49,416.52 C509.41,416.52 507.89,417.15 507.12,417.92 L489.98,434.94" id="Shape" stroke="#1AA5D0"></path>
      <path d="M414.52,719.2 L367.62,719.2 C366.53,719.2 365.64,720.08 365.64,721.15 L365.64,747.8 C365.64,748.87 364.75,749.75 363.67,749.75 L274.35,749.75" id="Shape" stroke="#55B549"></path>
      <path d="M407.34,308.6 L416.99,318.19 C417.76,318.95 419.28,319.58 420.36,319.58 L567.12,319.38 C568.21,319.38 569.72,320.01 570.5,320.75 L686.45,434.75 C687.22,435.51 687.22,436.74 686.45,437.5 L649.25,474.55 C648.879932,474.917897 648.671847,475.418178 648.671847,475.94 C648.671847,476.461822 648.879932,476.962103 649.25,477.33 L698.87,526.61 C699.64,527.38 701.17,528.01 702.25,528.01 L840.53,528.01 C841.61,528.01 843.13,528.63 843.9,529.4 L881.16,566.4 C881.93,567.16 883.46,567.8 884.54,567.8 L906.24,567.8" id="Shape" stroke="#D3C452"></path>
      <path d="M9.98,920.87 L226.75,920.87 C227.84,920.87 228.72,919.98 228.72,918.91 L228.72,819.08 C228.72,818 229.62,817.12 230.7,817.12 L496.94,817.12 C498.02,817.12 499.54,816.5 500.31,815.73 L520.49,795.69 C521.26,794.93 521.26,793.67 520.49,792.93 L441.79,714.73 C440.954157,713.806171 440.460057,712.623859 440.39,711.38 L440.39,709.81 C440.39,708.74 441.27,707.85 442.36,707.85 L581.58,707.87 C582.67,707.87 584.18,707.25 584.96,706.48 L638.66,653 C639.414786,652.240951 640.399058,651.75233 641.46,651.61 C642.22,651.61 642.87,650.73 642.87,649.65 L642.87,643.03" id="Shape" stroke="#9DCA40"></path>
      <path d="M180.536865,73.4368655 L373.92,266.82 L517.08,409.47 C517.85,410.24 518.48,411.74 518.48,412.82 L518.48,458.07 C518.48,459.15 519.11,460.66 519.88,461.42 L531.9,473.35 C532.67,474.12 534.18,474.75 535.27,474.75 L545.13,474.75 C546.22,474.75 547.73,474.12 548.51,473.35 L554.8,467.1 C555.733514,466.268408 556.921672,465.778337 558.17,465.71 L643.98,465.71 C645.06,465.71 646.58,465.09 647.35,464.32 L710.45,401.66 C711.384769,400.822688 712.576948,400.328886 713.83,400.26 L875.39,400.26 C876.47,400.26 877.36,401.15 877.36,402.22 L877.36,580.88 C877.36,581.95 876.73,583.46 875.96,584.23 L864.54,595.57 C863.603847,596.403681 862.411813,596.893896 861.16,596.96 L655.03,596.96 C653.26274,596.022506 653.052645,595.522479 653.05,595 L653.05,521.93 C653.05,520.86 652.17,519.97 651.08,519.97 L562.82,519.97 C561.739762,519.970056 560.860967,519.100182 560.85,518.02 L560.85,485.5 C560.85,484.42 559.96,483.54 558.88,483.54 C556.89,483.54 555.38,482.91 554.6,482.14 L547.16,474.76" id="Shape" stroke="#B00D7C"></path>
      <path d="M776.42,0.65 L776.42,212.01 C776.42,213.09 777.05,214.6 777.82,215.36 L824.55,261.76 C825.32,262.53 825.95,264.04 825.95,265.12 L825.95,300.91 L823.46,300.77 C822.71,300.77 821.49,301.4 820.72,302.17 L802.4,320.36 C801.564157,321.283829 801.070057,322.466141 801,323.71 L801,440.66 C801,441.73 801.63,443.24 802.38,444.01 L848.91,490.59 C849.74066,491.515306 850.227898,492.698094 850.29,493.94 L850.27,524.28 C850.27,525.36 849.64,526.87 848.87,527.63 L843.96,532.51 C843.027867,533.345223 841.839565,533.83888 840.59,533.91 L725.52,533.91 C724.44,533.91 723.55,534.78 723.55,535.86 L723.55,571.86 C723.55,572.94 722.66,573.82 721.58,573.82 L628.87,573.82 C627.78,573.82 626.27,574.45 625.49,575.22 L605.91,594.67 C604.973847,595.503681 603.781813,595.993896 602.53,596.06 L538.92,596.06" id="Shape" stroke="#DA5A98"></path>
      <path d="M407.48,824 L407.48,908.33 C407.48,909.41 406.59,910.29 405.51,910.29 L348.03,910.29 C346.94,910.29 346.05,911.17 346.05,912.25 L346.05,922.61 C346.05,923.69 345.17,924.57 344.08,924.57 L236.52,924.57" id="Shape" stroke="#1EB2D8"></path>
      <path d="M136.95,441.32 L250.35,553.94 C251.13,554.71 252.65,555.34 253.73,555.34 L289.85,555.34 C290.93,555.34 292.45,555.96 293.22,556.72 L498.67,760.75 C499.44,761.51 500.96,762.14 502.04,762.14 L564.78,762.17 L594.31,762.17 C595.4,762.17 596.91,762.8 597.68,763.57 L614.04,779.8 C614.81,780.57 616.33,781.2 617.41,781.2 L751.75,781.2" id="Shape" stroke="#F5C739"></path>
      <path d="M401.82,669.44 L426.26,645.17 C427.192133,644.334777 428.380435,643.84112 429.63,643.77 L551.15,643.77 C552.23,643.77 553.75,644.4 554.52,645.17 L588.84,679.25 C589.61,680.02 591.14,680.65 592.22,680.65 L646.58,680.65" id="Shape" stroke="#31B495"></path>
      <path d="M759.41,357.74 L738.05,336.52 C737.214157,335.596171 736.720057,334.413859 736.65,333.17 L736.65,0.42" id="Shape" stroke="#AD7D20"></path>
      <path d="M880.4,271.02 L880.4,291.13 C880.4,292.21 879.5,293.09 878.42,293.09 L783.93,293.09 C782.85,293.09 781.33,293.72 780.56,294.49 L730.28,344.42 C729.444157,345.343829 728.950057,346.526141 728.88,347.77 L728.88,404.18 C728.88,405.26 729.51,406.77 730.28,407.53 L740.91,418.09 C741.68,418.85 742.31,420.36 742.31,421.44 L742.31,542.89 C742.31,543.97 741.42,544.85 740.34,544.85 L555.6,544.85 C554.52,544.85 553,544.23 552.23,543.46 L531.03,522.4 L515.26,537.2 C514.325109,538.027962 513.137095,538.514449 511.89,538.58 L408.15,538.58 C407.07,538.58 405.55,539.21 404.78,539.95 L342.68,601.25 C341.744582,602.075701 340.556211,602.558807 339.31,602.62 L269.46,602.62 C268.37,602.62 266.86,603.25 266.09,604.02 L197.87,671.75 C196.937867,672.585223 195.749565,673.07888 194.5,673.15 L160.1,673.15 C159.01,673.15 157.5,673.77 156.72,674.53 L95.08,735.75 C94.2441573,736.673829 93.750057,737.856141 93.68,739.1 L93.68,837.12 C93.68,838.2 92.79,839.08 91.71,839.08 L60.95,839.08 C59.87,839.08 58.35,839.71 57.58,840.48 L9.29,888.43" id="Shape" stroke="#1F8C43"></path>
      <path d="M310.55,501.03 L310.55,535.12 C310.55,536.19 309.92,537.7 309.15,538.47 L252.67,594.35 C251.737867,595.185223 250.549565,595.67888 249.3,595.75 L91.4,595.75" id="Shape" stroke="#74BB63"></path>
      <path d="M1106.12,495.59 L1091.07,480.64 C1090.13523,479.802688 1088.94305,479.308886 1087.69,479.24 L1041.65,479.24 C1040.57,479.24 1039.05,479.87 1038.28,480.64 L1023.78,495.04 C1023.01,495.8 1022.38,495.54 1022.38,494.47 L1022.38,459.54 C1022.38,458.46 1021.75,456.96 1020.98,456.19 L1018.5,453.72" id="Shape" stroke="#E5683E"></path>
      <path d="M952.77,317.25 L952.77,371.68 C952.77,372.76 953.4,374.27 954.17,375.03 L1040.55,460.81 C1041.32,461.58 1042.84,462.21 1043.92,462.21 L1142.53,462.21 C1143.62,462.21 1145.13,461.58 1145.89,460.81 L1168.49,438.01 C1169.41873,437.177073 1170.60426,436.686628 1171.85,436.62 L1278.23,436.62 C1279.31,436.62 1280.2,435.74 1280.2,434.66 L1280.24,339.42 C1280.24,338.34 1281.13,337.46 1282.21,337.46 L1321.23,337.46 C1322.32,337.46 1323.2,338.34 1323.2,339.42 L1323.2,387.52" id="Shape" stroke="#DA5A98"></path>
      <path d="M1085.23,205.08 L1104.43,224.14 C1105.19,224.9 1106.71,225.53 1107.79,225.53 L1285.21,225.53 C1286.3,225.53 1287.18,226.41 1287.18,227.49 L1287.18,328.33 C1287.18,329.986854 1288.52315,331.33 1290.18,331.33 L1326.6,331.33 C1327.68,331.33 1328.57,332.21 1328.57,333.29 L1328.57,387.94" id="Shape" stroke="#3EB373"></path>
      <path d="M159.17,877.75 L401.29,877.75 C402.37,877.75 403.26,876.87 403.26,875.79 L403.26,751.9 C403.26,750.82 402.37,749.94 401.29,749.94 L371.17,749.94 C370.647521,749.942659 370.145387,749.737652 369.774063,749.370079 C369.40274,749.002506 369.192645,748.502479 369.19,747.98 L369.19,721.22 C369.19,720.15 368.31,719.26 367.22,719.26 L346.35,719.26" id="Shape" stroke="#2765B0"></path>
      <path d="M584.48,575.1 L594.03,575.1 C595.12,575.1 596.63,574.47 597.4,573.7 L645.63,525.87 C646.566153,525.036319 647.758187,524.546104 649.01,524.48 L673.27,524.48 C674.35,524.48 675.87,525.11 676.64,525.87 L699.9,548.97 C700.67,549.73 702.19,550.36 703.27,550.36 L814.33,550.36 C815.42,550.36 816.3,549.48 816.3,548.4 L816.3,493.94 C816.3,492.86 815.67,491.35 814.9,490.61 L794.55,470.57 L791.75,467.81 L790.58,466.65 C789.646486,465.818408 788.458328,465.328337 787.21,465.26 L775.55,465.26 C774.465892,465.260014 773.585503,464.384094 773.58,463.3 L773.58,389.6 C773.58,388.52 774.46,387.64 775.55,387.64 L852.93,387.64" id="Shape" stroke="#EB9D12"></path>
      <path d="M91.06,481.19 L91.06,592.38 C91.06,593.45 91.69,594.96 92.46,595.73 L141.52,644.44 C142.28,645.21 143.8,645.84 144.89,645.84 L166.69,645.84 C167.77,645.84 169.29,646.46 170.06,647.23 L283.06,759.45 C283.84,760.22 285.36,760.85 286.44,760.85 L457.04,760.85 C458.12,760.85 459.01,761.72 459.01,762.8 L459.01,823.21" id="Shape" stroke="#9DCA40"></path>
    </g>
  </g>
</svg>
