<?xml version="1.0" encoding="UTF-8"?>
<svg width="497px" height="78px" viewBox="0 0 497 78" version="1.1" xmlns="http://www.w3.org/2000/svg" xmlns:xlink="http://www.w3.org/1999/xlink">
    <!-- Generator: Sketch 51.2 (57519) - http://www.bohemiancoding.com/sketch -->
    <title>web3data.org</title>
    <desc>Created with Sketch.</desc>
    <defs></defs>
    <g id="Brand" stroke="none" stroke-width="1" fill="none" fill-rule="evenodd">
        <g id="Brand-Logo" transform="translate(-121.000000, -1114.000000)" fill="#0F2319">
            <path d="M123.358398,1139.7002 L121,1139.7002 L121,1137.03418 L137.132812,1137.03418 L137.132812,1139.7002 L133.03125,1139.7002 L142.499023,1161.2334 L152.206055,1137.03418 L154.598633,1137.03418 L165.467773,1161.16504 L173.602539,1139.7002 L168.612305,1139.7002 L168.612305,1137.03418 L180.438477,1137.03418 L180.438477,1139.7002 L176.644531,1139.7002 L164.168945,1172.68359 L161.43457,1172.68359 L150.462891,1148.99707 L140.960938,1172.68359 L138.260742,1172.68359 L123.358398,1139.7002 Z M216.661642,1166.01855 C213.08415,1170.46194 207.991428,1172.68359 201.383322,1172.68359 C199.195811,1172.68359 196.917188,1172.22217 194.547385,1171.29932 C192.177581,1170.37646 190.161,1169.10613 188.49758,1167.48828 C185.056807,1164.0703 183.336447,1159.71243 183.336447,1154.41455 C183.336447,1149.11667 185.068201,1144.80438 188.53176,1141.47754 C191.995318,1138.1507 196.393061,1136.4873 201.725119,1136.4873 C209.5637,1136.4873 214.496919,1139.76852 216.524924,1146.33105 C217.185734,1148.42742 217.516135,1150.78579 217.516135,1153.40625 L192.770041,1153.40625 L192.770041,1154.43164 C192.770041,1161.47269 194.763836,1166.0983 198.751486,1168.30859 C200.095894,1169.06055 201.702323,1169.43652 203.570822,1169.43652 C207.717978,1169.43652 211.477706,1167.75034 214.850119,1164.37793 L216.661642,1166.01855 Z M208.321799,1150.60352 C208.276225,1146.95766 207.717963,1144.17205 206.646994,1142.24658 C205.576025,1140.32112 203.821485,1139.3584 201.383322,1139.3584 C196.438636,1139.3584 193.624536,1143.10673 192.940939,1150.60352 L208.321799,1150.60352 Z M237.640667,1140.75977 C240.28391,1137.88866 244.328466,1136.45312 249.774457,1136.45312 C251.551809,1136.45312 253.414583,1136.80062 255.362835,1137.49561 C257.311087,1138.1906 259.025751,1139.27864 260.506878,1140.75977 C263.674212,1143.97267 265.257855,1148.46156 265.257855,1154.22656 C265.257855,1159.99157 263.605853,1164.50894 260.3018,1167.77881 C256.997747,1171.04868 252.964584,1172.68359 248.202191,1172.68359 C245.14879,1172.68359 242.334691,1172.05697 239.759808,1170.80371 C238.962278,1170.41634 238.255905,1169.9834 237.640667,1169.50488 L237.640667,1172 L223.626996,1172 L223.626996,1169.33398 L228.753949,1169.33398 L228.753949,1117.17578 L223.626996,1117.17578 L223.626996,1114.44141 L237.640667,1114.44141 L237.640667,1140.75977 Z M246.766644,1169.74414 C252.713939,1169.74414 255.687542,1164.73117 255.687542,1154.70508 C255.687542,1147.25387 254.081113,1142.55991 250.868207,1140.62305 C249.751664,1139.93945 248.327525,1139.60905 246.595746,1139.63184 C244.863966,1139.65462 243.194875,1140.14453 241.588421,1141.10156 C239.981968,1142.0586 238.666063,1143.32323 237.640667,1144.89551 L237.640667,1165.84766 C239.34966,1167.69337 241.594104,1168.90104 244.374066,1169.4707 C245.194382,1169.653 245.991901,1169.74414 246.766644,1169.74414 Z M298.609927,1131.49707 C298.609927,1125.07126 295.613538,1121.8584 289.620669,1121.8584 C285.952031,1121.8584 283.24047,1122.73567 281.485904,1124.49023 C282.648019,1124.76367 283.559468,1125.35042 284.220279,1126.25049 C284.881089,1127.15056 285.211489,1128.03352 285.211489,1128.89941 C285.211489,1130.49447 284.744372,1131.7705 283.810122,1132.72754 C282.875873,1133.68458 281.827706,1134.16309 280.665591,1134.16309 C278.774306,1134.16309 277.418525,1133.639 276.598208,1132.59082 C275.777892,1131.54264 275.367739,1130.4546 275.367739,1129.32666 C275.367739,1128.19872 275.595602,1127.20183 276.051333,1126.33594 C276.507065,1125.47005 277.133686,1124.67253 277.931216,1123.94336 C279.480703,1122.46223 281.491588,1121.27165 283.963931,1120.37158 C286.436274,1119.47151 288.971242,1119.02148 291.568911,1119.02148 C296.83261,1119.02148 300.894255,1120.12092 303.75397,1122.31982 C306.613685,1124.51873 308.043521,1127.46385 308.043521,1131.15527 C308.043521,1134.14031 306.944085,1136.85188 304.745181,1139.29004 C302.546277,1141.7282 299.635336,1143.30045 296.012271,1144.00684 C300.478439,1144.28027 304.095753,1145.562 306.864321,1147.85205 C309.63289,1150.1421 311.017154,1153.05304 311.017154,1156.58496 C311.017154,1161.62079 309.046145,1165.56281 305.104068,1168.41113 C301.161991,1171.25945 296.080661,1172.68359 289.859927,1172.68359 C285.712771,1172.68359 282.10685,1171.74936 279.042056,1169.88086 C275.977262,1168.01236 274.444888,1165.55145 274.444888,1162.49805 C274.444888,1161.10807 274.929095,1159.92888 275.897525,1158.96045 C276.865954,1157.99202 277.874245,1157.50781 278.922427,1157.50781 C280.654206,1157.50781 282.009987,1157.99772 282.98981,1158.97754 C283.969632,1159.95736 284.459536,1161.03971 284.459536,1162.22461 C284.459536,1163.40951 284.157619,1164.45768 283.553775,1165.36914 C282.94993,1166.2806 282.078357,1166.91862 280.939029,1167.2832 C282.556875,1168.60482 284.516491,1169.40234 286.817935,1169.67578 C287.774971,1169.78971 289.096572,1169.84668 290.782779,1169.84668 C294.200764,1169.84668 296.838271,1168.78712 298.695376,1166.66797 C300.552482,1164.54882 301.481021,1161.79168 301.481021,1158.39648 C301.481021,1155.00129 300.267654,1152.18719 297.840884,1149.9541 C295.414114,1147.72102 292.389242,1146.60449 288.766177,1146.60449 C287.512915,1146.60449 286.259673,1146.7526 285.006411,1147.04883 L285.006411,1143.87012 C289.358647,1143.87012 292.713919,1142.70802 295.072329,1140.38379 C297.43074,1138.05956 298.609927,1135.09735 298.609927,1131.49707 Z M347.923913,1168.44531 C345.235097,1171.27085 341.213328,1172.68359 335.858483,1172.68359 C334.081131,1172.68359 332.218356,1172.3361 330.270104,1171.64111 C328.321852,1170.94612 326.612885,1169.85808 325.143151,1168.37695 C323.673417,1166.89583 322.51132,1165.01027 321.656823,1162.72021 C320.802327,1160.43016 320.375085,1157.78127 320.375085,1154.77344 C320.375085,1149.12237 322.027087,1144.65627 325.33114,1141.375 C328.635193,1138.09373 332.668355,1136.45312 337.430749,1136.45312 C340.438576,1136.45312 343.218497,1137.06835 345.770593,1138.29883 C346.590909,1138.6862 347.308676,1139.11914 347.923913,1139.59766 L347.923913,1117.10742 L340.848718,1117.10742 L340.848718,1114.44141 L356.810632,1114.44141 L356.810632,1169.33398 L361.869226,1169.33398 L361.869226,1172 L347.923913,1172 L347.923913,1168.44531 Z M338.866296,1139.39258 C332.919,1139.39258 329.945397,1144.40555 329.945397,1154.43164 C329.945397,1161.88285 331.551827,1166.57681 334.764733,1168.51367 C335.881275,1169.19727 337.299718,1169.53337 339.020104,1169.52197 C340.740491,1169.51058 342.392492,1169.03777 343.976159,1168.10352 C345.559826,1167.16927 346.875731,1165.91602 347.923913,1164.34375 L347.923913,1143.2207 C346.169347,1141.39778 343.936296,1140.21289 341.224694,1139.66602 C340.404378,1139.48372 339.618253,1139.39258 338.866296,1139.39258 Z M389.820907,1168.1377 C387.177664,1171.16831 383.634406,1172.68359 379.191024,1172.68359 C375.818611,1172.68359 372.913367,1171.74366 370.475204,1169.86377 C368.037041,1167.98388 366.817977,1165.52296 366.817977,1162.48096 C366.817977,1159.43895 368.014254,1157.0464 370.406844,1155.30322 C372.799434,1153.56005 375.881272,1152.68848 379.65245,1152.68848 C383.423628,1152.68848 386.573824,1153.63411 389.103133,1155.52539 L389.103133,1147.39062 C389.103133,1144.63345 388.76134,1142.76498 388.077743,1141.78516 C387.394146,1140.80533 386.590931,1140.12175 385.668075,1139.73438 C384.745219,1139.347 383.725535,1139.15332 382.608993,1139.15332 C380.854427,1139.15332 379.373322,1139.3527 378.165633,1139.75146 C376.957945,1140.15023 376.149034,1140.55469 375.738876,1140.96484 C376.787058,1141.28386 377.595969,1142.08137 378.165633,1143.35742 C378.347926,1143.81315 378.439071,1144.36002 378.439071,1144.99805 C378.439071,1146.25131 377.983346,1147.29378 377.071883,1148.12549 C376.160421,1148.9572 375.248971,1149.37305 374.337508,1149.37305 C372.742448,1149.37305 371.500599,1148.9515 370.611923,1148.1084 C369.723246,1147.2653 369.278915,1146.25131 369.278915,1145.06641 C369.278915,1143.8815 369.495384,1142.90739 369.928329,1142.14404 C370.361274,1141.38069 370.942323,1140.69141 371.671493,1140.07617 C373.061474,1138.91406 374.810317,1138.02539 376.918075,1137.41016 C379.025833,1136.79492 381.002538,1136.4873 382.848251,1136.4873 C387.975229,1136.4873 391.769137,1137.52408 394.230087,1139.59766 C396.691036,1141.67123 397.921493,1144.56509 397.921493,1148.2793 L397.921493,1166.49707 C397.921493,1168.38836 398.388611,1169.33398 399.32286,1169.33398 C400.257109,1169.33398 401.157166,1168.76433 402.023055,1167.625 L403.800399,1169.09473 C402.250912,1171.44174 399.721641,1172.61523 396.212508,1172.61523 C394.982034,1172.61523 393.734487,1172.22787 392.469833,1171.45312 C391.205178,1170.67838 390.322211,1169.57325 389.820907,1168.1377 Z M389.205673,1158.56738 C387.268814,1156.6761 385.149694,1155.73047 382.848251,1155.73047 C380.546807,1155.73047 378.815053,1156.27164 377.652938,1157.354 C376.490823,1158.43637 375.909774,1160.17382 375.909774,1162.56641 C375.909774,1166.09832 377.151624,1168.24023 379.63536,1168.99219 C380.341744,1169.22005 381.05951,1169.33398 381.78868,1169.33398 C383.862258,1169.33398 385.84466,1168.53647 387.735946,1166.94141 C388.282824,1166.46289 388.772728,1165.9502 389.205673,1165.40332 L389.205673,1158.56738 Z M423.514776,1172.68359 C415.379969,1172.68359 411.312627,1168.90108 411.312627,1161.33594 L411.312627,1139.7002 L407.176885,1139.7002 L407.176885,1137.03418 L411.312627,1137.03418 L411.312627,1126.5752 C413.386205,1126.5752 415.915477,1126.03972 418.900518,1124.96875 C419.584115,1124.7181 420.074019,1124.50163 420.370245,1124.31934 L420.370245,1137.03418 L431.615362,1137.03418 L431.615362,1139.7002 L420.370245,1139.7002 L420.370245,1163.79688 C420.370245,1165.89324 420.808879,1167.40283 421.686162,1168.32568 C422.563446,1169.24854 423.73124,1169.70996 425.18958,1169.70996 C427.468238,1169.70996 429.518998,1168.69597 431.341924,1166.66797 L433.153448,1168.27441 C431.512814,1170.30242 429.279764,1171.6582 426.454229,1172.3418 C425.519979,1172.56966 424.540172,1172.68359 423.514776,1172.68359 Z M461.241848,1168.1377 C458.598605,1171.16831 455.055347,1172.68359 450.611965,1172.68359 C447.239552,1172.68359 444.334308,1171.74366 441.896145,1169.86377 C439.457981,1167.98388 438.238918,1165.52296 438.238918,1162.48096 C438.238918,1159.43895 439.435195,1157.0464 441.827785,1155.30322 C444.220375,1153.56005 447.302213,1152.68848 451.073391,1152.68848 C454.844568,1152.68848 457.994765,1153.63411 460.524074,1155.52539 L460.524074,1147.39062 C460.524074,1144.63345 460.182281,1142.76498 459.498684,1141.78516 C458.815087,1140.80533 458.011872,1140.12175 457.089016,1139.73438 C456.16616,1139.347 455.146476,1139.15332 454.029934,1139.15332 C452.275368,1139.15332 450.794263,1139.3527 449.586574,1139.75146 C448.378886,1140.15023 447.569975,1140.55469 447.159817,1140.96484 C448.207999,1141.28386 449.01691,1142.08137 449.586574,1143.35742 C449.768867,1143.81315 449.860012,1144.36002 449.860012,1144.99805 C449.860012,1146.25131 449.404287,1147.29378 448.492824,1148.12549 C447.581361,1148.9572 446.669912,1149.37305 445.758449,1149.37305 C444.163389,1149.37305 442.92154,1148.9515 442.032863,1148.1084 C441.144187,1147.2653 440.699856,1146.25131 440.699856,1145.06641 C440.699856,1143.8815 440.916325,1142.90739 441.34927,1142.14404 C441.782215,1141.38069 442.363263,1140.69141 443.092434,1140.07617 C444.482415,1138.91406 446.231258,1138.02539 448.339016,1137.41016 C450.446774,1136.79492 452.423479,1136.4873 454.269192,1136.4873 C459.39617,1136.4873 463.190078,1137.52408 465.651027,1139.59766 C468.111977,1141.67123 469.342434,1144.56509 469.342434,1148.2793 L469.342434,1166.49707 C469.342434,1168.38836 469.809551,1169.33398 470.743801,1169.33398 C471.67805,1169.33398 472.578106,1168.76433 473.443996,1167.625 L475.22134,1169.09473 C473.671853,1171.44174 471.142581,1172.61523 467.633449,1172.61523 C466.402974,1172.61523 465.155428,1172.22787 463.890774,1171.45312 C462.626119,1170.67838 461.743152,1169.57325 461.241848,1168.1377 Z M460.626613,1158.56738 C458.689755,1156.6761 456.570635,1155.73047 454.269192,1155.73047 C451.967748,1155.73047 450.235994,1156.27164 449.073879,1157.354 C447.911764,1158.43637 447.330715,1160.17382 447.330715,1162.56641 C447.330715,1166.09832 448.572565,1168.24023 451.056301,1168.99219 C451.762685,1169.22005 452.480451,1169.33398 453.209621,1169.33398 C455.283199,1169.33398 457.265601,1168.53647 459.156887,1166.94141 C459.703765,1166.46289 460.193669,1165.9502 460.626613,1165.40332 L460.626613,1158.56738 Z M482.870287,1167.18066 C482.870287,1164.7425 483.964026,1163.04493 486.151537,1162.08789 C486.812348,1161.81445 487.530114,1161.67773 488.304857,1161.67773 C489.854344,1161.67773 491.153159,1162.20182 492.201342,1163.25 C493.249524,1164.29818 493.773607,1165.60269 493.773607,1167.16357 C493.773607,1168.72445 493.255221,1170.02327 492.218431,1171.06006 C491.181642,1172.09685 489.882827,1172.61523 488.321947,1172.61523 C486.761067,1172.61523 485.462252,1172.09685 484.425463,1171.06006 C483.388674,1170.02327 482.870287,1168.73015 482.870287,1167.18066 Z M503.165718,1154.5 C503.165718,1149.12237 504.874686,1144.7702 508.292671,1141.44336 C511.710657,1138.11652 516.011558,1136.45312 521.195503,1136.45312 C526.379449,1136.45312 530.651867,1138.11082 534.012886,1141.42627 C537.373906,1144.74172 539.05439,1149.09389 539.05439,1154.48291 C539.05439,1159.87193 537.385299,1164.25259 534.047066,1167.625 C530.708833,1170.99741 526.430718,1172.68359 521.212593,1172.68359 C515.994468,1172.68359 511.682174,1170.99741 508.275582,1167.625 C504.868989,1164.25259 503.165718,1159.87763 503.165718,1154.5 Z M521.110054,1169.84668 C525.712942,1169.84668 528.41311,1166.71357 529.21064,1160.44727 C529.438506,1158.57877 529.552437,1156.57358 529.552437,1154.43164 C529.552437,1149.62367 529.005568,1146.02345 527.911812,1143.63086 C526.567404,1140.75975 524.300174,1139.32422 521.110054,1139.32422 C516.507167,1139.32422 513.806998,1142.35479 513.009468,1148.41602 C512.781603,1150.26173 512.667671,1152.26692 512.667671,1154.43164 C512.667671,1159.26239 513.214541,1162.90819 514.308296,1165.36914 C515.675491,1168.35418 517.942721,1169.84668 521.110054,1169.84668 Z M559.247283,1141.75098 C562.915921,1138.21906 566.880725,1136.45312 571.141814,1136.45312 C572.509008,1136.45312 573.716678,1136.90885 574.764861,1137.82031 C575.813043,1138.73178 576.337126,1139.89957 576.337126,1141.32373 C576.337126,1142.74789 575.892795,1143.90429 575.004118,1144.79297 C574.115442,1145.68165 573.033096,1146.12598 571.757048,1146.12598 C570.481,1146.12598 569.404351,1145.68734 568.527068,1144.81006 C567.649785,1143.93278 567.21115,1142.84473 567.21115,1141.5459 C567.21115,1141.02181 567.302295,1140.48633 567.484587,1139.93945 C564.180534,1140.94206 561.434793,1142.63964 559.247283,1145.03223 L559.247283,1169.36816 L566.732634,1169.36816 L566.732634,1172 L545.199431,1172 L545.199431,1169.36816 L550.292204,1169.36816 L550.292204,1139.7002 L545.165251,1139.7002 L545.165251,1137.03418 L559.247283,1137.03418 L559.247283,1141.75098 Z M601.417714,1167.55664 C612.218549,1167.55664 617.618886,1171.0999 617.618886,1178.18652 C617.618886,1182.42483 615.80738,1185.64338 612.184315,1187.84229 C608.56125,1190.04119 604.117936,1191.14062 598.854237,1191.14062 C590.878937,1191.14062 585.524173,1189.55698 582.789784,1186.38965 C581.787175,1185.25032 581.285878,1184.03126 581.285878,1182.73242 C581.285878,1180.59048 581.969465,1178.79037 583.336659,1177.33203 C584.703854,1175.87369 586.447,1174.83692 588.566151,1174.22168 C586.720439,1173.90267 585.182368,1173.12794 583.951894,1171.89746 C582.721419,1170.66699 582.10619,1169.42514 582.10619,1168.17188 C582.10619,1166.12108 582.681543,1164.37224 583.832265,1162.92529 C584.982987,1161.47835 586.424216,1160.31055 588.155995,1159.42188 C584.624076,1157.02928 582.858144,1153.85061 582.858144,1149.88574 C582.858144,1145.92088 584.356338,1142.69663 587.352772,1140.21289 C590.349207,1137.72915 593.812714,1136.4873 597.743397,1136.4873 C601.674081,1136.4873 604.995174,1137.34179 607.706776,1139.05078 C609.005611,1138.82292 610.030991,1138.40137 610.782948,1137.78613 C609.324608,1136.94303 608.595448,1135.85499 608.595448,1134.52197 C608.595448,1133.18896 608.891669,1132.21485 609.48412,1131.59961 C610.555089,1130.46028 611.683007,1129.89062 612.867909,1129.89062 C614.052811,1129.89062 615.061102,1130.28938 615.892812,1131.08691 C616.724521,1131.88444 617.14037,1133.00097 617.14037,1134.43652 C617.14037,1135.87208 616.359942,1137.23355 614.799062,1138.521 C613.238181,1139.80844 611.671628,1140.61165 610.099355,1140.93066 C612.628664,1143.4144 613.8933,1146.41079 613.8933,1149.91992 C613.8933,1153.42905 612.383712,1156.36278 609.364491,1158.72119 C606.34527,1161.0796 602.625418,1162.25879 598.204823,1162.25879 C595.265355,1162.25879 592.633546,1161.72331 590.309315,1160.65234 C587.893939,1161.67774 586.686269,1163.01073 586.686269,1164.65137 C586.686269,1166.58823 588.395236,1167.55664 591.813222,1167.55664 L601.417714,1167.55664 Z M598.170644,1159.42188 C603.092543,1159.42188 605.553456,1156.0723 605.553456,1149.37305 C605.553456,1142.67379 603.149509,1139.32422 598.341542,1139.32422 C594.513398,1139.32422 592.246168,1141.42055 591.539784,1145.61328 C591.311918,1146.86654 591.197987,1148.19954 591.197987,1149.6123 C591.197987,1154.39748 592.360085,1157.41666 594.684315,1158.66992 C595.595778,1159.17123 596.757876,1159.42188 598.170644,1159.42188 Z M587.950917,1181.70703 C587.950917,1186.10484 591.699252,1188.30371 599.196034,1188.30371 C603.024178,1188.30371 605.992085,1187.62012 608.099843,1186.25293 C610.207601,1184.88574 611.261464,1183.17677 611.261464,1181.12598 C611.261464,1178.30044 609.905683,1176.34083 607.194081,1175.24707 C606.214258,1174.8597 605.017981,1174.66602 603.605214,1174.66602 L593.180409,1174.66602 C591.630922,1175.07617 590.371983,1175.91926 589.403554,1177.19531 C588.435124,1178.47136 587.950917,1179.97525 587.950917,1181.70703 Z" id="web3data.org"></path>
        </g>
    </g>
</svg>