<?xml version="1.0" encoding="UTF-8"?>
<svg width="496px" height="76px" viewBox="0 0 496 76" version="1.1" xmlns="http://www.w3.org/2000/svg" xmlns:xlink="http://www.w3.org/1999/xlink">
    <!-- Generator: Sketch 51.2 (57519) - http://www.bohemiancoding.com/sketch -->
    <title>Web3Data Copy</title>
    <desc>Created with Sketch.</desc>
    <defs></defs>
    <g id="Page-1" stroke="none" stroke-width="1" fill="none" fill-rule="evenodd">
        <g id="Brand-Logo" transform="translate(-417.000000, -675.000000)" fill="#0F2319">
            <path d="M424.306641,686.191406 L417.84668,686.191406 L417.84668,682.763672 L446.191406,682.763672 L446.191406,686.191406 L437.402344,686.191406 L453.969727,734.926758 L471.196289,682.763672 L474.404297,682.763672 L493.520508,734.707031 L509.384766,686.191406 L500.991211,686.191406 L500.991211,682.763672 L520.766602,682.763672 L520.766602,686.191406 L513.955078,686.191406 L492.158203,750.878906 L488.115234,750.878906 L468.999023,702.1875 L452.651367,750.878906 L448.696289,750.878906 L424.306641,686.191406 Z M565.581431,742.30957 C560.981798,748.02249 554.434012,750.878906 545.937876,750.878906 C543.125362,750.878906 540.195704,750.28565 537.148813,749.099121 C534.101923,747.912592 531.509176,746.279307 529.370493,744.199219 C524.946643,739.804666 522.734751,734.201694 522.734751,727.390137 C522.734751,720.578579 524.961291,715.034201 529.414438,710.756836 C533.867586,706.479471 539.521826,704.34082 546.377329,704.34082 C556.455505,704.34082 562.798215,708.559528 565.405649,716.99707 C566.255263,719.692396 566.680063,722.724593 566.680063,726.09375 L534.863657,726.09375 L534.863657,727.412109 C534.863657,736.464889 537.427108,742.412095 542.554087,745.253906 C544.282611,746.220708 546.34802,746.704102 548.750376,746.704102 C554.082434,746.704102 558.91637,744.536154 563.252329,740.200195 L565.581431,742.30957 Z M554.858774,722.490234 C554.80018,717.802711 554.082414,714.221204 552.705454,711.745605 C551.328494,709.270007 549.072657,708.032227 545.937876,708.032227 C539.580422,708.032227 535.962294,712.851514 535.083384,722.490234 L554.858774,722.490234 Z M592.554463,709.833984 C595.952917,706.14256 601.153061,704.296875 608.155049,704.296875 C610.440217,704.296875 612.835212,704.743648 615.340107,705.637207 C617.845003,706.530766 620.049571,707.929678 621.953877,709.833984 C626.026163,713.964864 628.062275,719.736291 628.062275,727.148438 C628.062275,734.560584 625.938273,740.368631 621.690205,744.572754 C617.442137,748.776876 612.256642,750.878906 606.133564,750.878906 C602.207764,750.878906 598.589636,750.07325 595.279072,748.461914 C594.253677,747.963865 593.345482,747.40723 592.554463,746.791992 L592.554463,750 L574.536885,750 L574.536885,746.572266 L581.128682,746.572266 L581.128682,679.511719 L574.536885,679.511719 L574.536885,675.996094 L592.554463,675.996094 L592.554463,709.833984 Z M604.287861,747.099609 C611.934384,747.099609 615.757588,740.654361 615.757588,727.763672 C615.757588,718.183546 613.692179,712.14845 609.561299,709.658203 C608.125745,708.779292 606.294708,708.354492 604.068135,708.383789 C601.841561,708.413086 599.695587,709.042963 597.630147,710.273438 C595.564706,711.503912 593.872829,713.129873 592.554463,715.151367 L592.554463,742.089844 C594.75174,744.462902 597.637453,746.015621 601.211689,746.748047 C602.266382,746.982423 603.291763,747.099609 604.287861,747.099609 Z M670.943511,697.924805 C670.943511,689.663045 667.09101,685.532227 659.385894,685.532227 C654.669073,685.532227 651.18278,686.660145 648.926909,688.916016 C650.421057,689.26758 651.592921,690.021967 652.442534,691.179199 C653.292148,692.336432 653.716948,693.471674 653.716948,694.584961 C653.716948,696.635752 653.116368,698.276361 651.91519,699.506836 C650.714013,700.737311 649.36637,701.352539 647.872222,701.352539 C645.440569,701.352539 643.697422,700.678718 642.64273,699.331055 C641.588037,697.983392 641.060698,696.58448 641.060698,695.134277 C641.060698,693.684075 641.353664,692.402349 641.939605,691.289062 C642.525545,690.175776 643.331201,689.150395 644.356597,688.212891 C646.348794,686.308584 648.934218,684.777838 652.112944,683.620605 C655.291671,682.463373 658.550916,681.884766 661.890776,681.884766 C668.658388,681.884766 673.880504,683.298326 677.55728,686.125488 C681.234056,688.952651 683.072417,692.739234 683.072417,697.485352 C683.072417,701.323261 681.658857,704.809555 678.831694,707.944336 C676.004532,711.079117 672.261893,713.100581 667.603667,714.008789 C673.345883,714.360353 677.996716,716.008286 681.556304,718.952637 C685.115892,721.896987 686.895659,725.639626 686.895659,730.180664 C686.895659,736.655306 684.361505,741.723615 679.29312,745.385742 C674.224735,749.04787 667.691598,750.878906 659.693511,750.878906 C654.361453,750.878906 649.725269,749.677746 645.784819,747.275391 C641.84437,744.873035 639.874175,741.709004 639.874175,737.783203 C639.874175,735.996085 640.496727,734.479987 641.741851,733.234863 C642.986974,731.98974 644.283348,731.367188 645.631011,731.367188 C647.857584,731.367188 649.600731,731.997064 650.860503,733.256836 C652.120275,734.516608 652.750151,735.908196 652.750151,737.431641 C652.750151,738.955086 652.361972,740.302729 651.585601,741.474609 C650.80923,742.64649 649.688635,743.466795 648.223784,743.935547 C650.303873,745.634774 652.823379,746.660154 655.782378,747.011719 C657.012853,747.158204 658.712055,747.231445 660.880034,747.231445 C665.274587,747.231445 668.665667,745.869154 671.053374,743.144531 C673.441081,740.419908 674.634917,736.875022 674.634917,732.509766 C674.634917,728.144509 673.074874,724.526382 669.954741,721.655273 C666.834608,718.784165 662.945487,717.348633 658.287261,717.348633 C656.675925,717.348633 655.064613,717.539061 653.453276,717.919922 L653.453276,713.833008 C659.049007,713.833008 663.362929,712.338882 666.395171,709.350586 C669.427413,706.36229 670.943511,702.553734 670.943511,697.924805 Z M697.345254,746.572266 L706.134316,746.572266 L706.178262,686.191406 L697.345254,686.191406 L697.345254,682.763672 L726.964395,682.763672 C744.630499,682.763672 756.056166,688.344671 761.241738,699.506836 C763.380421,704.106468 764.449746,709.555633 764.449746,715.854492 C764.449746,724.23344 762.01813,731.542938 757.154824,737.783203 C753.229023,742.792994 747.530838,746.323232 740.060098,748.374023 C736.134297,749.458013 731.56403,750 726.34916,750 L697.345254,750 L697.345254,746.572266 Z M725.821816,746.572266 C735.050378,746.572266 741.656757,744.272484 745.641152,739.672852 C749.625547,735.073219 751.617715,727.236383 751.617715,716.162109 L751.617715,714.799805 C751.441933,704.194283 749.310606,696.774924 745.223672,692.541504 C741.136737,688.308084 734.859945,686.191406 726.393106,686.191406 L717.999551,686.191406 L717.999551,746.572266 L725.821816,746.572266 Z M803.244067,745.03418 C799.845613,748.930684 795.289994,750.878906 789.577075,750.878906 C785.241116,750.878906 781.505802,749.670422 778.371021,747.253418 C775.236239,744.836414 773.668872,741.672383 773.668872,737.76123 C773.668872,733.850078 775.206943,730.773937 778.28313,728.532715 C781.359317,726.291493 785.32168,725.170898 790.170337,725.170898 C795.018994,725.170898 799.069246,726.386707 802.321216,728.818359 L802.321216,718.359375 C802.321216,714.814435 801.881767,712.412116 801.002856,711.152344 C800.123946,709.892572 799.091241,709.013674 797.904712,708.515625 C796.718183,708.017576 795.407161,707.768555 793.971606,707.768555 C791.715736,707.768555 789.811458,708.0249 788.258716,708.537598 C786.705974,709.050296 785.665945,709.57031 785.138599,710.097656 C786.486262,710.507815 787.52629,711.533195 788.258716,713.173828 C788.493092,713.759769 788.610278,714.462887 788.610278,715.283203 C788.610278,716.894539 788.024347,718.234858 786.852466,719.304199 C785.680585,720.373541 784.508722,720.908203 783.336841,720.908203 C781.286049,720.908203 779.689386,720.366216 778.546802,719.282227 C777.404218,718.198237 776.832935,716.894539 776.832935,715.371094 C776.832935,713.847649 777.111252,712.59522 777.667896,711.61377 C778.224539,710.632319 778.971602,709.746098 779.909106,708.955078 C781.696225,707.46093 783.944737,706.318363 786.654712,705.527344 C789.364686,704.736324 791.906165,704.34082 794.279224,704.34082 C800.871054,704.34082 805.748934,705.673815 808.913013,708.339844 C812.077091,711.005873 813.659106,714.726539 813.659106,719.501953 L813.659106,742.924805 C813.659106,745.356457 814.259686,746.572266 815.460864,746.572266 C816.662042,746.572266 817.819257,745.839851 818.932544,744.375 L821.2177,746.264648 C819.225503,749.282242 815.973582,750.791016 811.461841,750.791016 C809.879802,750.791016 808.275814,750.292974 806.649829,749.296875 C805.023844,748.300776 803.888602,746.879892 803.244067,745.03418 Z M802.453052,732.729492 C799.962805,730.297839 797.238223,729.082031 794.279224,729.082031 C791.320225,729.082031 789.093684,729.777825 787.599536,731.169434 C786.105388,732.561042 785.358325,734.794906 785.358325,737.871094 C785.358325,742.412132 786.954989,745.166011 790.148364,746.132812 C791.056572,746.425783 791.979414,746.572266 792.916919,746.572266 C795.582948,746.572266 798.131751,745.546885 800.563403,743.496094 C801.266532,742.880856 801.896408,742.221683 802.453052,741.518555 L802.453052,732.729492 Z M846.564756,750.878906 C836.105719,750.878906 830.876279,746.015674 830.876279,736.289062 L830.876279,708.47168 L825.558897,708.47168 L825.558897,705.043945 L830.876279,705.043945 L830.876279,691.59668 C833.542308,691.59668 836.794229,690.90821 840.632139,689.53125 C841.511049,689.208983 842.140926,688.930665 842.521787,688.696289 L842.521787,705.043945 L856.979795,705.043945 L856.979795,708.47168 L842.521787,708.47168 L842.521787,739.453125 C842.521787,742.148451 843.085746,744.08935 844.213682,745.275879 C845.341617,746.462408 846.843067,747.055664 848.718076,747.055664 C851.647778,747.055664 854.284471,745.751966 856.628232,743.144531 L858.957334,745.209961 C856.847948,747.817396 853.976883,749.560542 850.344053,750.439453 C849.142875,750.732423 847.883122,750.878906 846.564756,750.878906 Z M895.070991,745.03418 C891.672537,748.930684 887.116918,750.878906 881.403999,750.878906 C877.06804,750.878906 873.332726,749.670422 870.197944,747.253418 C867.063163,744.836414 865.495796,741.672383 865.495796,737.76123 C865.495796,733.850078 867.033867,730.773937 870.110054,728.532715 C873.186241,726.291493 877.148604,725.170898 881.997261,725.170898 C886.845918,725.170898 890.89617,726.386707 894.14814,728.818359 L894.14814,718.359375 C894.14814,714.814435 893.708691,712.412116 892.82978,711.152344 C891.95087,709.892572 890.918165,709.013674 889.731636,708.515625 C888.545106,708.017576 887.234084,707.768555 885.79853,707.768555 C883.54266,707.768555 881.638382,708.0249 880.08564,708.537598 C878.532898,709.050296 877.492869,709.57031 876.965523,710.097656 C878.313186,710.507815 879.353214,711.533195 880.08564,713.173828 C880.320016,713.759769 880.437202,714.462887 880.437202,715.283203 C880.437202,716.894539 879.851271,718.234858 878.67939,719.304199 C877.507509,720.373541 876.335646,720.908203 875.163765,720.908203 C873.112973,720.908203 871.516309,720.366216 870.373726,719.282227 C869.231142,718.198237 868.659858,716.894539 868.659858,715.371094 C868.659858,713.847649 868.938176,712.59522 869.494819,711.61377 C870.051463,710.632319 870.798526,709.746098 871.73603,708.955078 C873.523149,707.46093 875.771661,706.318363 878.481636,705.527344 C881.19161,704.736324 883.733089,704.34082 886.106148,704.34082 C892.697977,704.34082 897.575858,705.673815 900.739937,708.339844 C903.904015,711.005873 905.48603,714.726539 905.48603,719.501953 L905.48603,742.924805 C905.48603,745.356457 906.08661,746.572266 907.287788,746.572266 C908.488966,746.572266 909.646181,745.839851 910.759468,744.375 L913.044624,746.264648 C911.052427,749.282242 907.800506,750.791016 903.288765,750.791016 C901.706726,750.791016 900.102738,750.292974 898.476753,749.296875 C896.850768,748.300776 895.715526,746.879892 895.070991,745.03418 Z M894.279976,732.729492 C891.789729,730.297839 889.065147,729.082031 886.106148,729.082031 C883.147148,729.082031 880.920608,729.777825 879.42646,731.169434 C877.932312,732.561042 877.185249,734.794906 877.185249,737.871094 C877.185249,742.412132 878.781913,745.166011 881.975288,746.132812 C882.883496,746.425783 883.806338,746.572266 884.743843,746.572266 C887.409872,746.572266 889.958674,745.546885 892.390327,743.496094 C893.093456,742.880856 893.723332,742.221683 894.279976,741.518555 L894.279976,732.729492 Z" id="Web3Data-Copy"></path>
        </g>
    </g>
</svg>